<svg width="234" height="23" viewBox="0 0 234 23" fill="none" xmlns="http://www.w3.org/2000/svg">
<path d="M20.0024 22.9092L19.9716 7.475L12.174 20.3368H10.7563L2.95875 7.56579V22.9092H0V1.725H2.52726L11.5268 16.6145L20.403 1.725H22.9303L22.9611 22.9092H20.0024ZM35.166 6.86974H38.1247V22.9092H35.166V6.86974ZM36.6453 3.78289C36.07 3.78289 35.5923 3.60132 35.2122 3.23816C34.8321 2.875 34.642 2.43114 34.642 1.90658C34.642 1.38201 34.8321 0.933116 35.2122 0.559868C35.5923 0.186621 36.07 0 36.6453 0C37.2206 0 37.6984 0.176533 38.0785 0.529605C38.4586 0.882677 38.6487 1.32149 38.6487 1.84605C38.6487 2.39079 38.4586 2.84978 38.0785 3.22303C37.6984 3.59627 37.2206 3.78289 36.6453 3.78289Z" fill="#6E6E6E"/>
<path d="M53.3809 4.08545V11.4697H64.1988V14.0723H53.3809V22.6368H50.2988V1.45255H65.5241V4.08545H53.3809ZM88.7934 17.3407H77.3282L74.9551 22.6368H71.7806L81.5506 1.45255H84.6018L94.4027 22.6368H91.1665L88.7934 17.3407ZM87.7147 14.9197L83.0608 4.5394L78.4069 14.9197H87.7147ZM113.111 22.8789C110.953 22.8789 109.006 22.4098 107.27 21.4716C105.534 20.5335 104.173 19.2423 103.186 17.598C102.2 15.9536 101.707 14.1026 101.707 12.0447C101.707 9.98676 102.2 8.13568 103.186 6.49137C104.173 4.84706 105.539 3.55585 107.286 2.61769C109.032 1.67952 110.984 1.21045 113.141 1.21045C114.826 1.21045 116.367 1.48786 117.764 2.04269C119.162 2.59751 120.353 3.41965 121.34 4.50913L119.336 6.41571C117.713 4.74114 115.689 3.90387 113.265 3.90387C111.662 3.90387 110.213 4.25694 108.919 4.96308C107.625 5.66923 106.613 6.64268 105.883 7.88348C105.154 9.12427 104.789 10.5113 104.789 12.0447C104.789 13.578 105.154 14.965 105.883 16.2058C106.613 17.4466 107.625 18.4201 108.919 19.1262C110.213 19.8324 111.662 20.1855 113.265 20.1855C115.669 20.1855 117.693 19.3381 119.336 17.6433L121.34 19.5499C120.353 20.6394 119.157 21.4666 117.749 22.0315C116.342 22.5964 114.795 22.8789 113.111 22.8789ZM135.948 4.08545H128.552V1.45255H146.397V4.08545H139V22.6368H135.948V4.08545ZM164.457 22.8789C161.581 22.8789 159.341 22.0719 157.738 20.4578C156.136 18.8438 155.334 16.5236 155.334 13.4973V1.45255H158.416V13.3762C158.416 17.9157 160.44 20.1855 164.488 20.1855C166.461 20.1855 167.971 19.6256 169.019 18.5058C170.066 17.3861 170.59 15.6763 170.59 13.3762V1.45255H173.58V13.4973C173.58 16.5438 172.779 18.869 171.176 20.473C169.573 22.0769 167.334 22.8789 164.457 22.8789ZM200.486 22.6368L195.832 16.1302C195.257 16.1705 194.805 16.1907 194.476 16.1907H189.144V22.6368H186.062V1.45255H194.476C197.271 1.45255 199.469 2.10825 201.072 3.41966C202.674 4.73107 203.476 6.53675 203.476 8.83677C203.476 10.471 203.065 11.8631 202.243 13.0131C201.421 14.1631 200.25 15.0004 198.729 15.5249L203.846 22.6368H200.486ZM194.384 13.6183C196.336 13.6183 197.825 13.2048 198.853 12.3776C199.88 11.5504 200.394 10.3701 200.394 8.83677C200.394 7.30342 199.88 6.12822 198.853 5.31111C197.825 4.494 196.336 4.08545 194.384 4.08545H189.144V13.6183H194.384ZM228.378 17.3407H216.913L214.54 22.6368H211.366L221.136 1.45255H224.187L233.988 22.6368H230.752L228.378 17.3407ZM227.3 14.9197L222.646 4.5394L217.992 14.9197H227.3Z" fill="#236192"/>
</svg>
