<svg width="25" height="25" viewBox="0 0 25 25" fill="none" xmlns="http://www.w3.org/2000/svg">
<g clip-path="url(#clip0_330_8729)">
<path d="M17.6919 8.60711L18.6714 9.1913L12.9183 18.8366L12.1365 19.0343L11.9389 18.2524L17.6919 8.60711V8.60711ZM19.4581 2.718C19.2456 2.7717 19.0462 2.91253 18.9255 3.11481L17.7635 5.06304L21.7558 7.44427L22.9178 5.49604C23.1654 5.08084 23.0301 4.54547 22.6149 4.29782L20.1237 2.81193C19.9108 2.68493 19.679 2.66215 19.4581 2.718V2.718ZM17.084 6.20217L10.061 17.9767L10.8665 21.1635L14.0533 20.358L21.0763 8.5834L17.084 6.20217V6.20217Z" fill="#696F79"/>
<path d="M10.0754 21.95C10.0469 22.1301 9.87566 22.295 9.69471 22.2728C7.75858 22.0355 4.57338 21.5385 3.56425 19.9046C2.87043 18.7748 3.38705 17.6158 4.0741 16.6404C4.31517 16.2933 4.56414 15.9755 4.79339 15.667C5.02911 15.3413 5.62672 14.5716 5.5166 14.1908C5.49724 14.1374 5.4706 14.0976 5.42741 14.0527C5.38077 14.0021 5.30248 13.9397 5.19882 13.8783C4.64099 13.5687 3.9849 13.4651 3.33596 13.3799C2.98292 13.3382 2.62488 13.311 2.26522 13.2942C1.63594 13.2648 1.1327 12.7435 1.16277 12.1143V12.1143C1.1928 11.4857 1.74314 11.0057 2.36633 11.093C2.80917 11.155 3.25093 11.2311 3.69321 11.3283C4.33394 11.4714 4.99931 11.6607 5.60985 11.9639C6.08706 12.2014 6.57556 12.5429 6.8857 13.0098C7.26765 13.5644 7.3465 14.2774 7.12072 14.9045C6.95977 15.3703 6.66514 15.7878 6.36476 16.152C5.92234 16.6881 5.42075 17.1681 5.00408 17.6921C4.70285 18.0809 4.35553 18.57 4.44125 19.079L4.44479 19.1022L4.45042 19.125L4.461 19.171L4.47537 19.2168C4.4779 19.2245 4.47966 19.2324 4.48235 19.24C4.49298 19.2669 4.5001 19.2849 4.50911 19.3092C5.07441 20.5449 7.68557 21.2713 8.94566 21.5948C9.2814 21.6788 9.61966 21.7559 9.95916 21.8292C10.0432 21.8474 10.0889 21.8651 10.0754 21.95V21.95Z" fill="#696F79"/>
</g>
<defs>
<clipPath id="clip0_330_8729">
<rect width="25" height="25" fill="white"/>
</clipPath>
</defs>
</svg>
